<svg xmlns="http://www.w3.org/2000/svg" viewBox="0 0 240 240" role="img" aria-label="Sage avatar">
  <rect width="240" height="240" rx="120" fill="#b9d8c2"/>
  <circle cx="120" cy="116" r="66" fill="#5f7f68"/>
  <circle cx="120" cy="108" r="52" fill="#d7a879"/>
  <path d="M75 100c9-37 34-55 65-48 22 5 37 22 44 49-27-17-63-19-109-1z" fill="#22382e"/>
  <circle cx="101" cy="116" r="6" fill="#1f1a16"/>
  <circle cx="139" cy="116" r="6" fill="#1f1a16"/>
  <path d="M102 141c10 8 26 8 36 0" fill="none" stroke="#7b3f30" stroke-width="7" stroke-linecap="round"/>
  <path d="M50 211c14-43 45-64 70-64s56 21 70 64" fill="#2f6f5e"/>
  <path d="M78 63c16-18 44-25 68-14" fill="none" stroke="#eef5df" stroke-width="9" stroke-linecap="round"/>
</svg>
